<svg width="1253" height="854" viewBox="0 0 1253 854" fill="none" xmlns="http://www.w3.org/2000/svg">
<g clip-path="url(#clip0_528_2)">
<g opacity="0.67">
<g clip-path="url(#clip1_528_2)">
<line y1="-3.5" x2="198.559" y2="-3.5" transform="matrix(0.575044 -0.818122 0.739586 0.673062 12.8203 144.586)" stroke="white" stroke-width="7"/>
<line y1="-3.5" x2="198.559" y2="-3.5" transform="matrix(0.575044 -0.818122 0.739586 0.673062 -77 54.4454)" stroke="white" stroke-width="7"/>
<line y1="-3.5" x2="198.559" y2="-3.5" transform="matrix(0.575044 -0.818122 0.739586 0.673062 -14.8911 144.586)" stroke="#00FF0A" stroke-width="7"/>
<line y1="-3.5" x2="198.559" y2="-3.5" transform="matrix(0.575044 -0.818122 0.739586 0.673062 -94 52.4454)" stroke="#00FF0A" stroke-width="7"/>
<line y1="-3.5" x2="198.559" y2="-3.5" transform="matrix(0.575044 -0.818122 0.739586 0.673062 -72 78.4454)" stroke="#00FF0A" stroke-width="7"/>
<line y1="-3.5" x2="198.559" y2="-3.5" transform="matrix(0.575044 -0.818122 0.739586 0.673062 -37 99.4454)" stroke="#00FF0A" stroke-width="7"/>
<line y1="-3.5" x2="221.238" y2="-3.5" transform="matrix(0.575044 -0.818122 0.739586 0.673062 -39 137)" stroke="white" stroke-width="7"/>
<line y1="-3.5" x2="221.238" y2="-3.5" transform="matrix(0.575044 -0.818122 0.739586 0.673062 -65 102)" stroke="white" stroke-width="7"/>
</g>
</g>
<g opacity="0.67">
<g clip-path="url(#clip2_528_2)">
<line y1="-3.5" x2="198.559" y2="-3.5" transform="matrix(0.575044 -0.818122 0.739586 0.673062 1122.82 865.586)" stroke="white" stroke-width="7"/>
<line y1="-3.5" x2="198.559" y2="-3.5" transform="matrix(0.575044 -0.818122 0.739586 0.673062 1033 775.445)" stroke="white" stroke-width="7"/>
<line y1="-3.5" x2="198.559" y2="-3.5" transform="matrix(0.575044 -0.818122 0.739586 0.673062 1095.11 865.586)" stroke="#00FF0A" stroke-width="7"/>
<line y1="-3.5" x2="198.559" y2="-3.5" transform="matrix(0.575044 -0.818122 0.739586 0.673062 1016 773.445)" stroke="#00FF0A" stroke-width="7"/>
<line y1="-3.5" x2="198.559" y2="-3.5" transform="matrix(0.575044 -0.818122 0.739586 0.673062 1038 799.445)" stroke="#00FF0A" stroke-width="7"/>
<line y1="-3.5" x2="198.559" y2="-3.5" transform="matrix(0.575044 -0.818122 0.739586 0.673062 1073 820.445)" stroke="#00FF0A" stroke-width="7"/>
<line y1="-3.5" x2="221.238" y2="-3.5" transform="matrix(0.575044 -0.818122 0.739586 0.673062 1071 858)" stroke="white" stroke-width="7"/>
<line y1="-3.5" x2="221.238" y2="-3.5" transform="matrix(0.575044 -0.818122 0.739586 0.673062 1045 823)" stroke="white" stroke-width="7"/>
</g>
</g>
<g opacity="0.67">
<g clip-path="url(#clip3_528_2)">
<line y1="-3.5" x2="198.559" y2="-3.5" transform="matrix(0.575044 -0.818122 0.739586 0.673062 444.82 778.586)" stroke="white" stroke-width="7"/>
<line y1="-3.5" x2="198.559" y2="-3.5" transform="matrix(0.575044 -0.818122 0.739586 0.673062 355 688.445)" stroke="white" stroke-width="7"/>
<line y1="-3.5" x2="198.559" y2="-3.5" transform="matrix(0.575044 -0.818122 0.739586 0.673062 417.109 778.586)" stroke="#00FF0A" stroke-width="7"/>
<line y1="-3.5" x2="198.559" y2="-3.5" transform="matrix(0.575044 -0.818122 0.739586 0.673062 338 686.445)" stroke="#00FF0A" stroke-width="7"/>
<line y1="-3.5" x2="198.559" y2="-3.5" transform="matrix(0.575044 -0.818122 0.739586 0.673062 360 712.445)" stroke="#00FF0A" stroke-width="7"/>
<line y1="-3.5" x2="198.559" y2="-3.5" transform="matrix(0.575044 -0.818122 0.739586 0.673062 395 733.445)" stroke="#00FF0A" stroke-width="7"/>
<line y1="-3.5" x2="221.238" y2="-3.5" transform="matrix(0.575044 -0.818122 0.739586 0.673062 393 771)" stroke="white" stroke-width="7"/>
<line y1="-3.5" x2="221.238" y2="-3.5" transform="matrix(0.575044 -0.818122 0.739586 0.673062 367 736)" stroke="white" stroke-width="7"/>
</g>
</g>
<g opacity="0.67">
<g clip-path="url(#clip4_528_2)">
<line y1="-3.5" x2="198.559" y2="-3.5" transform="matrix(0.575044 -0.818122 0.739586 0.673062 637.82 294.586)" stroke="white" stroke-width="7"/>
<line y1="-3.5" x2="198.559" y2="-3.5" transform="matrix(0.575044 -0.818122 0.739586 0.673062 548 204.445)" stroke="white" stroke-width="7"/>
<line y1="-3.5" x2="198.559" y2="-3.5" transform="matrix(0.575044 -0.818122 0.739586 0.673062 610.109 294.586)" stroke="#00FF0A" stroke-width="7"/>
<line y1="-3.5" x2="198.559" y2="-3.5" transform="matrix(0.575044 -0.818122 0.739586 0.673062 531 202.445)" stroke="#00FF0A" stroke-width="7"/>
<line y1="-3.5" x2="198.559" y2="-3.5" transform="matrix(0.575044 -0.818122 0.739586 0.673062 553 228.445)" stroke="#00FF0A" stroke-width="7"/>
<line y1="-3.5" x2="198.559" y2="-3.5" transform="matrix(0.575044 -0.818122 0.739586 0.673062 588 249.445)" stroke="#00FF0A" stroke-width="7"/>
<line y1="-3.5" x2="221.238" y2="-3.5" transform="matrix(0.575044 -0.818122 0.739586 0.673062 586 287)" stroke="white" stroke-width="7"/>
<line y1="-3.5" x2="221.238" y2="-3.5" transform="matrix(0.575044 -0.818122 0.739586 0.673062 560 252)" stroke="white" stroke-width="7"/>
</g>
</g>
<g opacity="0.67">
<g clip-path="url(#clip5_528_2)">
<line y1="-3.5" x2="198.559" y2="-3.5" transform="matrix(0.575044 -0.818122 0.739586 0.673062 1188.82 210.586)" stroke="white" stroke-width="7"/>
<line y1="-3.5" x2="198.559" y2="-3.5" transform="matrix(0.575044 -0.818122 0.739586 0.673062 1099 120.445)" stroke="white" stroke-width="7"/>
<line y1="-3.5" x2="198.559" y2="-3.5" transform="matrix(0.575044 -0.818122 0.739586 0.673062 1161.11 210.586)" stroke="#00FF0A" stroke-width="7"/>
<line y1="-3.5" x2="198.559" y2="-3.5" transform="matrix(0.575044 -0.818122 0.739586 0.673062 1082 118.445)" stroke="#00FF0A" stroke-width="7"/>
<line y1="-3.5" x2="198.559" y2="-3.5" transform="matrix(0.575044 -0.818122 0.739586 0.673062 1104 144.445)" stroke="#00FF0A" stroke-width="7"/>
<line y1="-3.5" x2="198.559" y2="-3.5" transform="matrix(0.575044 -0.818122 0.739586 0.673062 1139 165.445)" stroke="#00FF0A" stroke-width="7"/>
<line y1="-3.5" x2="221.238" y2="-3.5" transform="matrix(0.575044 -0.818122 0.739586 0.673062 1137 203)" stroke="white" stroke-width="7"/>
<line y1="-3.5" x2="221.238" y2="-3.5" transform="matrix(0.575044 -0.818122 0.739586 0.673062 1111 168)" stroke="white" stroke-width="7"/>
</g>
</g>
</g>
<defs>
<clipPath id="clip0_528_2">
<rect width="1253" height="854" fill="white"/>
</clipPath>
<clipPath id="clip1_528_2">
<rect x="-51" y="-66" width="132" height="162" rx="66" fill="white"/>
</clipPath>
<clipPath id="clip2_528_2">
<rect x="1059" y="655" width="132" height="162" rx="66" fill="white"/>
</clipPath>
<clipPath id="clip3_528_2">
<rect x="381" y="568" width="132" height="162" rx="66" fill="white"/>
</clipPath>
<clipPath id="clip4_528_2">
<rect x="574" y="84" width="132" height="162" rx="66" fill="white"/>
</clipPath>
<clipPath id="clip5_528_2">
<rect x="1125" width="132" height="162" rx="66" fill="white"/>
</clipPath>
</defs>
</svg>
