<svg width="1257" height="856" viewBox="0 0 1257 856" fill="none" xmlns="http://www.w3.org/2000/svg">
<g clip-path="url(#clip0_557_2)">
<g opacity="0.67">
<g clip-path="url(#clip1_557_2)">
<line y1="-3.5" x2="198.559" y2="-3.5" transform="matrix(0.575044 -0.818122 0.739586 0.673062 1156.82 927.586)" stroke="white" stroke-width="7"/>
<line y1="-3.5" x2="198.559" y2="-3.5" transform="matrix(0.575044 -0.818122 0.739586 0.673062 1067 837.445)" stroke="white" stroke-width="7"/>
<line y1="-3.5" x2="198.559" y2="-3.5" transform="matrix(0.575044 -0.818122 0.739586 0.673062 1129.11 927.586)" stroke="#00FF0A" stroke-width="7"/>
<line y1="-3.5" x2="198.559" y2="-3.5" transform="matrix(0.575044 -0.818122 0.739586 0.673062 1050 835.445)" stroke="#00FF0A" stroke-width="7"/>
<line y1="-3.5" x2="198.559" y2="-3.5" transform="matrix(0.575044 -0.818122 0.739586 0.673062 1072 861.445)" stroke="#00FF0A" stroke-width="7"/>
<line y1="-3.5" x2="198.559" y2="-3.5" transform="matrix(0.575044 -0.818122 0.739586 0.673062 1107 882.445)" stroke="#00FF0A" stroke-width="7"/>
<line y1="-3.5" x2="221.238" y2="-3.5" transform="matrix(0.575044 -0.818122 0.739586 0.673062 1105 920)" stroke="white" stroke-width="7"/>
<line y1="-3.5" x2="221.238" y2="-3.5" transform="matrix(0.575044 -0.818122 0.739586 0.673062 1079 885)" stroke="white" stroke-width="7"/>
</g>
</g>
<g opacity="0.67">
<g clip-path="url(#clip2_557_2)">
<line y1="-3.5" x2="198.559" y2="-3.5" transform="matrix(0.575044 -0.818122 0.739586 0.673062 223.82 894.586)" stroke="white" stroke-width="7"/>
<line y1="-3.5" x2="198.559" y2="-3.5" transform="matrix(0.575044 -0.818122 0.739586 0.673062 134 804.445)" stroke="white" stroke-width="7"/>
<line y1="-3.5" x2="198.559" y2="-3.5" transform="matrix(0.575044 -0.818122 0.739586 0.673062 196.109 894.586)" stroke="#00FF0A" stroke-width="7"/>
<line y1="-3.5" x2="198.559" y2="-3.5" transform="matrix(0.575044 -0.818122 0.739586 0.673062 117 802.445)" stroke="#00FF0A" stroke-width="7"/>
<line y1="-3.5" x2="198.559" y2="-3.5" transform="matrix(0.575044 -0.818122 0.739586 0.673062 139 828.445)" stroke="#00FF0A" stroke-width="7"/>
<line y1="-3.5" x2="198.559" y2="-3.5" transform="matrix(0.575044 -0.818122 0.739586 0.673062 174 849.445)" stroke="#00FF0A" stroke-width="7"/>
<line y1="-3.5" x2="221.238" y2="-3.5" transform="matrix(0.575044 -0.818122 0.739586 0.673062 172 887)" stroke="white" stroke-width="7"/>
<line y1="-3.5" x2="221.238" y2="-3.5" transform="matrix(0.575044 -0.818122 0.739586 0.673062 146 852)" stroke="white" stroke-width="7"/>
</g>
</g>
<g opacity="0.67">
<g clip-path="url(#clip3_557_2)">
<line y1="-3.5" x2="198.559" y2="-3.5" transform="matrix(0.575044 -0.818122 0.739586 0.673062 59.8203 715.586)" stroke="white" stroke-width="7"/>
<line y1="-3.5" x2="198.559" y2="-3.5" transform="matrix(0.575044 -0.818122 0.739586 0.673062 -30 625.445)" stroke="white" stroke-width="7"/>
<line y1="-3.5" x2="198.559" y2="-3.5" transform="matrix(0.575044 -0.818122 0.739586 0.673062 32.1089 715.586)" stroke="#00FF0A" stroke-width="7"/>
<line y1="-3.5" x2="198.559" y2="-3.5" transform="matrix(0.575044 -0.818122 0.739586 0.673062 -47 623.445)" stroke="#00FF0A" stroke-width="7"/>
<line y1="-3.5" x2="198.559" y2="-3.5" transform="matrix(0.575044 -0.818122 0.739586 0.673062 -25 649.445)" stroke="#00FF0A" stroke-width="7"/>
<line y1="-3.5" x2="198.559" y2="-3.5" transform="matrix(0.575044 -0.818122 0.739586 0.673062 10 670.445)" stroke="#00FF0A" stroke-width="7"/>
<line y1="-3.5" x2="221.238" y2="-3.5" transform="matrix(0.575044 -0.818122 0.739586 0.673062 8 708)" stroke="white" stroke-width="7"/>
<line y1="-3.5" x2="221.238" y2="-3.5" transform="matrix(0.575044 -0.818122 0.739586 0.673062 -18 673)" stroke="white" stroke-width="7"/>
</g>
</g>
<g opacity="0.67">
<g clip-path="url(#clip4_557_2)">
<line y1="-3.5" x2="198.559" y2="-3.5" transform="matrix(0.575044 -0.818122 0.739586 0.673062 910.82 171.586)" stroke="white" stroke-width="7"/>
<line y1="-3.5" x2="198.559" y2="-3.5" transform="matrix(0.575044 -0.818122 0.739586 0.673062 821 81.4454)" stroke="white" stroke-width="7"/>
<line y1="-3.5" x2="198.559" y2="-3.5" transform="matrix(0.575044 -0.818122 0.739586 0.673062 883.109 171.586)" stroke="#00FF0A" stroke-width="7"/>
<line y1="-3.5" x2="198.559" y2="-3.5" transform="matrix(0.575044 -0.818122 0.739586 0.673062 804 79.4454)" stroke="#00FF0A" stroke-width="7"/>
<line y1="-3.5" x2="198.559" y2="-3.5" transform="matrix(0.575044 -0.818122 0.739586 0.673062 826 105.445)" stroke="#00FF0A" stroke-width="7"/>
<line y1="-3.5" x2="198.559" y2="-3.5" transform="matrix(0.575044 -0.818122 0.739586 0.673062 861 126.445)" stroke="#00FF0A" stroke-width="7"/>
<line y1="-3.5" x2="221.238" y2="-3.5" transform="matrix(0.575044 -0.818122 0.739586 0.673062 859 164)" stroke="white" stroke-width="7"/>
<line y1="-3.5" x2="221.238" y2="-3.5" transform="matrix(0.575044 -0.818122 0.739586 0.673062 833 129)" stroke="white" stroke-width="7"/>
</g>
</g>
<g opacity="0.67">
<g clip-path="url(#clip5_557_2)">
<line y1="-3.5" x2="198.559" y2="-3.5" transform="matrix(0.575044 -0.818122 0.739586 0.673062 1063.82 638.586)" stroke="white" stroke-width="7"/>
<line y1="-3.5" x2="198.559" y2="-3.5" transform="matrix(0.575044 -0.818122 0.739586 0.673062 974 548.445)" stroke="white" stroke-width="7"/>
<line y1="-3.5" x2="198.559" y2="-3.5" transform="matrix(0.575044 -0.818122 0.739586 0.673062 1036.11 638.586)" stroke="#00FF0A" stroke-width="7"/>
<line y1="-3.5" x2="198.559" y2="-3.5" transform="matrix(0.575044 -0.818122 0.739586 0.673062 957 546.445)" stroke="#00FF0A" stroke-width="7"/>
<line y1="-3.5" x2="198.559" y2="-3.5" transform="matrix(0.575044 -0.818122 0.739586 0.673062 979 572.445)" stroke="#00FF0A" stroke-width="7"/>
<line y1="-3.5" x2="198.559" y2="-3.5" transform="matrix(0.575044 -0.818122 0.739586 0.673062 1014 593.445)" stroke="#00FF0A" stroke-width="7"/>
<line y1="-3.5" x2="221.238" y2="-3.5" transform="matrix(0.575044 -0.818122 0.739586 0.673062 1012 631)" stroke="white" stroke-width="7"/>
<line y1="-3.5" x2="221.238" y2="-3.5" transform="matrix(0.575044 -0.818122 0.739586 0.673062 986 596)" stroke="white" stroke-width="7"/>
</g>
</g>
<g opacity="0.67">
<g clip-path="url(#clip6_557_2)">
<line y1="-3.5" x2="198.559" y2="-3.5" transform="matrix(0.575044 -0.818122 0.739586 0.673062 168.82 231.586)" stroke="white" stroke-width="7"/>
<line y1="-3.5" x2="198.559" y2="-3.5" transform="matrix(0.575044 -0.818122 0.739586 0.673062 79 141.445)" stroke="white" stroke-width="7"/>
<line y1="-3.5" x2="198.559" y2="-3.5" transform="matrix(0.575044 -0.818122 0.739586 0.673062 141.109 231.586)" stroke="#00FF0A" stroke-width="7"/>
<line y1="-3.5" x2="198.559" y2="-3.5" transform="matrix(0.575044 -0.818122 0.739586 0.673062 62 139.445)" stroke="#00FF0A" stroke-width="7"/>
<line y1="-3.5" x2="198.559" y2="-3.5" transform="matrix(0.575044 -0.818122 0.739586 0.673062 84 165.445)" stroke="#00FF0A" stroke-width="7"/>
<line y1="-3.5" x2="198.559" y2="-3.5" transform="matrix(0.575044 -0.818122 0.739586 0.673062 119 186.445)" stroke="#00FF0A" stroke-width="7"/>
<line y1="-3.5" x2="221.238" y2="-3.5" transform="matrix(0.575044 -0.818122 0.739586 0.673062 117 224)" stroke="white" stroke-width="7"/>
<line y1="-3.5" x2="221.238" y2="-3.5" transform="matrix(0.575044 -0.818122 0.739586 0.673062 91 189)" stroke="white" stroke-width="7"/>
</g>
</g>
</g>
<defs>
<clipPath id="clip0_557_2">
<rect width="1261" height="856" fill="white"/>
</clipPath>
<clipPath id="clip1_557_2">
<rect x="1093" y="717" width="132" height="162" rx="66" fill="white"/>
</clipPath>
<clipPath id="clip2_557_2">
<rect x="160" y="684" width="132" height="162" rx="66" fill="white"/>
</clipPath>
<clipPath id="clip3_557_2">
<rect x="-4" y="505" width="132" height="162" rx="66" fill="white"/>
</clipPath>
<clipPath id="clip4_557_2">
<rect x="847" y="-39" width="132" height="162" rx="66" fill="white"/>
</clipPath>
<clipPath id="clip5_557_2">
<rect x="1000" y="428" width="132" height="162" rx="66" fill="white"/>
</clipPath>
<clipPath id="clip6_557_2">
<rect x="105" y="21" width="132" height="162" rx="66" fill="white"/>
</clipPath>
</defs>
</svg>
