<svg width="59" height="366" viewBox="0 0 59 366" fill="none" xmlns="http://www.w3.org/2000/svg">
<path d="M28 349.667C33.891 349.667 38.6667 344.891 38.6667 339C38.6667 333.109 33.891 328.333 28 328.333C22.109 328.333 17.3333 333.109 17.3333 339C17.3333 344.891 22.109 349.667 28 349.667ZM28 37.6667C33.891 37.6667 38.6667 32.8911 38.6667 27C38.6667 21.109 33.891 16.3333 28 16.3333C22.109 16.3333 17.3333 21.109 17.3333 27C17.3333 32.8911 22.109 37.6667 28 37.6667ZM30 339L30 27H26L26 339H30Z" fill="white"/>
</svg>
