<svg width="249" height="297" viewBox="0 0 249 297" fill="none" xmlns="http://www.w3.org/2000/svg">
<g clip-path="url(#clip0_380_2)">
<path d="M225.229 75.366C239.113 88.2503 243.888 111.185 239.435 138.767C234.999 166.24 221.472 197.602 199.775 226.197C178.079 254.792 152.501 274.971 128.806 284.573C105.018 294.213 83.7654 292.995 69.8811 280.11C55.9968 267.226 51.2218 244.292 55.6751 216.71C60.1108 189.236 73.6383 157.874 95.3345 129.279C117.031 100.684 142.609 80.5053 166.304 70.9035C190.092 61.2638 211.344 62.4818 225.229 75.366Z" stroke="url(#paint0_linear_380_2)" stroke-width="6"/>
<path d="M227.647 22.5691C243.147 36.9524 247.867 63.4205 241.81 95.6805C235.783 127.784 219.19 164.745 193.341 198.814C167.491 232.883 137.459 257.372 109.918 269.511C82.2422 281.71 57.8529 281.165 42.3532 266.782C26.8535 252.398 22.1334 225.93 28.19 193.67C34.2171 161.567 50.8097 124.606 76.6592 90.5368C102.509 56.4678 132.541 31.9784 160.082 19.8395C187.758 7.64131 212.147 8.18585 227.647 22.5691Z" stroke="url(#paint1_linear_380_2)" stroke-width="6"/>
</g>
<defs>
<linearGradient id="paint0_linear_380_2" x1="93.1355" y1="127.239" x2="210.844" y2="216.548" gradientUnits="userSpaceOnUse">
<stop stop-color="white" stop-opacity="0"/>
<stop offset="1" stop-color="white"/>
</linearGradient>
<linearGradient id="paint1_linear_380_2" x1="74.4602" y1="88.4962" x2="205.407" y2="187.85" gradientUnits="userSpaceOnUse">
<stop stop-color="#6FF5E7" stop-opacity="0"/>
<stop offset="0.0001" stop-color="#00FF0A" stop-opacity="0"/>
<stop offset="0.99875" stop-color="#00FF0A"/>
</linearGradient>
<clipPath id="clip0_380_2">
<rect width="249" height="297" fill="white"/>
</clipPath>
</defs>
</svg>
