<svg width="360" height="800" viewBox="0 0 360 800" fill="none" xmlns="http://www.w3.org/2000/svg">
<g opacity="0.6" clip-path="url(#clip0_339_2)">
<path d="M7.06211 360C6.68529 360 6.40452 360.36 6.43796 360.799L9.61475 402.516C9.64819 402.955 9.97252 403.411 10.3358 403.529L23.8165 407.911C24.1796 408.029 24.7737 408.029 25.137 407.911L38.6586 403.522C39.0217 403.404 39.3465 402.948 39.3799 402.509L42.5619 360.799C42.5956 360.36 42.3146 360 41.9378 360H7.06211ZM35.7966 369.568C35.7666 369.96 35.7146 370.64 35.6812 371.079L35.5975 372.174C35.5638 372.613 35.5158 373.241 35.4905 373.57C35.4652 373.898 35.4413 374.167 35.4369 374.167C35.4326 374.167 35.1208 374.167 34.7439 374.167H25.1851C24.8082 374.167 24.4968 374.167 24.4927 374.167C24.4886 374.167 24.1768 374.167 23.8 374.167H18.7657C18.3889 374.167 18.1081 374.526 18.1416 374.966L18.4352 378.809C18.4686 379.248 18.8045 379.607 19.1813 379.607H23.8001C24.177 379.607 24.4887 379.607 24.4928 379.607C24.4969 379.607 24.8084 379.607 25.1852 379.607H33.1243C33.5011 379.607 34.0843 379.607 34.4202 379.607C34.7557 379.607 35.0057 379.928 34.9752 380.32C34.9447 380.712 34.8925 381.392 34.859 381.832L33.9148 394.221C33.8811 394.66 33.8385 395.221 33.8201 395.468C33.8013 395.715 33.4891 396.013 33.1259 396.131L25.1603 398.717C24.7971 398.834 24.4954 398.932 24.4898 398.933C24.4842 398.935 24.1826 398.839 23.8193 398.721L15.8452 396.131C15.482 396.013 15.1576 395.557 15.1241 395.117L14.6108 388.373C14.5774 387.933 14.8584 387.574 15.2353 387.574H15.963C16.3398 387.574 16.9564 387.574 17.3332 387.574H18.4185C18.7953 387.574 19.1309 387.933 19.1646 388.373L19.3659 391.013C19.3993 391.452 19.7242 391.906 20.0881 392.021L23.8181 393.2C24.1818 393.315 24.4808 393.409 24.4824 393.409C24.484 393.409 24.7829 393.315 25.1467 393.2L28.8834 392.018C29.247 391.903 29.5722 391.449 29.6059 391.01L30.0111 385.72C30.0448 385.281 29.764 384.921 29.3872 384.921H25.1852C24.8084 384.921 24.4969 384.921 24.4928 384.921C24.4887 384.921 24.177 384.921 23.8001 384.921H15.032C14.6552 384.921 14.3196 384.561 14.2862 384.122L13.292 371.079C13.2585 370.64 13.2066 369.96 13.1766 369.567C13.1469 369.176 13.4306 368.855 13.8074 368.855H23.8001C24.177 368.855 24.4887 368.855 24.4928 368.855C24.4969 368.855 24.8084 368.855 25.1852 368.855H35.1658C35.5425 368.855 35.8264 369.176 35.7966 369.568Z" fill="#FFAA5C"/>
<path d="M-23.3906 255.01L-28.11 234.564C-29.355 234.169 -30.5451 233.658 -31.6806 233.031C-32.816 232.404 -33.9354 231.72 -35.0388 230.979L-50.23 241.058L-68.9658 212.148L-56.5071 197.806C-56.6905 197.061 -56.8252 196.339 -56.9113 195.638L-57.4478 191.268C-57.5339 190.567 -57.578 189.833 -57.58 189.067L-73.1385 178.165L-61.953 145.581L-44.7749 151.685C-43.8835 150.699 -42.9401 149.762 -41.9448 148.874C-40.9495 147.985 -39.9409 147.204 -38.9191 146.531L-39.2863 125.55L-9.36501 121.876L-4.64561 142.323C-3.40066 142.717 -2.21047 143.228 -1.07503 143.855C0.0604047 144.483 1.1798 145.166 2.28314 145.907L17.4744 135.829L36.2102 164.738L23.7515 179.081C23.9349 179.825 24.0696 180.547 24.1557 181.249L24.6922 185.618C24.7783 186.319 24.777 187.059 24.6884 187.836L40.2468 198.738L29.0614 231.322L12.0193 225.201C11.1279 226.187 10.1845 227.124 9.18917 228.013C8.19385 228.902 7.18528 229.682 6.16347 230.355L6.53068 251.336L-23.3906 255.01ZM-15.4598 240.895L-4.7153 239.576L-4.9174 222.189C-2.21258 220.98 0.238549 219.393 2.436 217.426C4.63345 215.458 6.58384 213.166 8.28717 210.547L22.5664 215.529L26.5195 203.873L13.5315 194.791C13.7994 193.225 13.9213 191.595 13.8974 189.9C13.8734 188.206 13.7554 186.495 13.5435 184.769C13.3315 183.043 13.0322 181.355 12.6456 179.705C12.2589 178.055 11.7462 176.503 11.1074 175.048L21.5123 163.093L14.857 152.741L2.22694 161.191C-0.0724852 158.954 -2.52624 157.147 -5.13433 155.77C-7.74242 154.393 -10.5048 153.445 -13.4216 152.928L-17.2959 135.991L-28.0403 137.31L-27.8382 154.698C-30.543 155.906 -32.9942 157.494 -35.1916 159.461C-37.3891 161.428 -39.3395 163.721 -41.0428 166.339L-55.322 161.358L-59.2751 173.013L-46.307 181.934C-46.5616 183.607 -46.6803 185.265 -46.6629 186.905C-46.6456 188.546 -46.5243 190.283 -46.2991 192.117C-46.0871 193.843 -45.7912 195.504 -45.4111 197.1C-45.0311 198.696 -44.515 200.275 -43.863 201.838L-54.268 213.793L-47.6126 224.146L-34.9826 215.696C-32.6831 217.932 -30.2294 219.739 -27.6213 221.116C-25.0132 222.493 -22.2508 223.441 -19.334 223.959L-15.4598 240.895ZM-13.324 211.065C-8.06516 210.42 -3.84851 207.657 -0.674126 202.777C2.50026 197.898 3.70332 192.329 2.93502 186.072C2.16673 179.815 -0.347719 174.703 -4.60831 170.736C-8.8689 166.769 -13.6287 165.109 -18.8875 165.754C-24.2371 166.411 -28.4764 169.177 -31.6055 174.051C-34.7345 178.925 -35.9149 184.49 -35.1466 190.748C-34.3783 197.005 -31.8865 202.12 -27.6713 206.092C-23.456 210.064 -18.6736 211.722 -13.324 211.065Z" fill="#FFBC6D"/>
<path d="M154.888 714H127.111C126.445 714 125.946 714.71 126.005 715.548L128.542 751.387C128.601 752.225 129.176 753.102 129.821 753.328L139.822 756.83C140.466 757.055 141.519 757.057 142.164 756.833L152.178 753.336C152.823 753.11 153.398 752.241 153.457 751.402L155.995 715.548C156.054 714.71 155.557 714 154.888 714ZM150.071 726.937C150.07 726.942 150.067 726.946 150.063 726.947C150.058 726.948 150.054 726.945 150.052 726.94L142.216 730.988C142.104 731.046 142.041 731.195 142.064 731.344C142.087 731.493 142.191 731.601 142.312 731.601H148.407C148.731 731.601 149.04 731.774 149.257 732.078C149.474 732.382 149.578 732.788 149.544 733.194L148.591 744.456C148.544 745.008 148.25 745.478 147.834 745.662L141.364 748.532C141.121 748.64 140.855 748.64 140.611 748.534L134.172 745.722C133.753 745.539 133.456 745.069 133.409 744.514L132.977 739.414C132.955 739.146 133.023 738.879 133.166 738.678C133.309 738.478 133.512 738.364 133.726 738.364H135.518C135.903 738.364 136.226 738.73 136.267 739.212L136.532 742.347L140.99 744.301L145.469 742.329L146.017 735.828H133.353C132.969 735.828 132.647 735.464 132.605 734.983L132.363 732.227C132.327 731.807 132.515 731.407 132.825 731.246L140.93 727.033C141.022 726.986 141.074 726.863 141.055 726.74C141.036 726.617 140.95 726.528 140.851 726.528H132.317C132.06 726.528 131.845 726.284 131.818 725.962L131.571 723C131.556 722.822 131.602 722.644 131.697 722.511C131.792 722.378 131.928 722.301 132.07 722.301H149.926C150.069 722.301 150.205 722.378 150.3 722.513C150.396 722.647 150.441 722.826 150.425 723.006L150.071 726.937Z" fill="#46BDFF"/>
<path d="M42.6647 167.295L41.9721 135.665C40.1836 134.686 38.5166 133.554 36.9712 132.268C35.4259 130.982 33.9234 129.617 32.4638 128.174L5.85508 138.178L-13.6828 89.6069L10.0919 72.449C10.0487 71.2943 10.0736 70.1866 10.1664 69.1259L10.7445 62.5172C10.8373 61.4566 11.0052 60.3614 11.2482 59.2317L-9.1858 38.206L18.4895 -6.23425L42.9568 8.23835C44.6448 7.07062 46.3972 5.99073 48.2139 4.99869C50.0307 4.00666 51.8332 3.1778 53.6214 2.51211L59.7962 -28.5175L107.009 -24.3869L107.702 7.24355C109.491 8.22216 111.157 9.35455 112.703 10.6407C114.248 11.9269 115.751 13.2916 117.21 14.7347L143.819 4.73066L163.357 53.3015L139.582 70.4594C139.625 71.6142 139.601 72.7219 139.508 73.7825L138.93 80.3912C138.837 81.4519 138.597 82.5408 138.211 83.658L158.645 104.684L130.97 149.124L106.717 134.67C105.029 135.838 103.277 136.918 101.46 137.91C99.6433 138.902 97.8408 139.731 96.0526 140.396L89.8779 171.426L42.6647 167.295ZM59.4003 149.028L76.3541 150.512L81.6285 124.829C86.1778 123.912 90.4589 122.354 94.4715 120.157C98.4841 117.959 102.221 115.203 105.683 111.889L126.051 123.783L135.877 107.871L118.812 90.3466C119.728 88.1247 120.439 85.7616 120.946 83.2574C121.454 80.7532 121.822 78.1957 122.05 75.5848C122.279 72.974 122.36 70.3914 122.296 67.8372C122.231 65.2829 121.941 62.8322 121.425 60.4851L141.273 46.19L134.36 28.8137L112.214 37.2351C109.395 33.2066 106.2 29.7619 102.63 26.901C99.0603 24.04 95.1147 21.7628 90.7938 20.0694L90.2738 -6.11992L73.32 -7.60319L68.0456 18.0792C63.4962 18.9966 59.2152 20.554 55.2026 22.7516C51.1899 24.9491 47.4528 27.7052 43.9912 31.0197L23.6232 19.1255L13.7975 35.0374L30.883 52.3171C29.9535 54.7022 29.2386 57.106 28.7383 59.5286C28.2381 61.9513 27.8666 64.5496 27.6239 67.3236C27.3954 69.9344 27.3172 72.4762 27.3892 74.9489C27.4612 77.4216 27.7478 79.9131 28.249 82.4233L8.40106 96.7184L15.3145 114.095L37.4598 105.673C40.279 109.702 43.4737 113.147 47.0437 116.007C50.6138 118.868 54.5593 121.146 58.8803 122.839L59.4003 149.028ZM72.2682 105.759C80.5663 106.485 87.941 103.759 94.3922 97.5824C100.843 91.4053 104.483 83.5846 105.311 74.1203C106.139 64.6561 103.913 56.3222 98.6322 49.1187C93.3516 41.9152 86.5623 37.9505 78.2642 37.2245C69.8231 36.486 62.4127 39.2084 56.033 45.3918C49.6534 51.5751 46.0495 59.3989 45.2215 68.8632C44.3935 78.3275 46.584 86.6582 51.793 93.8555C57.002 101.053 63.8271 105.021 72.2682 105.759Z" fill="#81CFFB"/>
<path d="M305.204 611.887L301.379 599.226C300.364 599.041 299.394 598.78 298.469 598.443C297.544 598.106 296.632 597.732 295.733 597.321L283.333 604.468L268.088 587.189L278.264 577.492C278.116 577.032 278.006 576.583 277.937 576.145L277.505 573.415C277.435 572.976 277.4 572.516 277.399 572.032L264.724 565.955L273.884 544.81L287.885 547.775C288.613 547.107 289.384 546.467 290.197 545.854C291.009 545.242 291.833 544.697 292.667 544.219L292.392 530.996L316.796 527.13L320.621 539.792C321.636 539.977 322.606 540.238 323.531 540.575C324.456 540.912 325.368 541.286 326.267 541.696L338.667 534.55L353.912 551.829L343.736 561.525C343.884 561.986 343.994 562.435 344.063 562.873L344.495 565.603C344.565 566.041 344.563 566.508 344.49 567.003L357.165 573.08L348.005 594.225L334.115 591.242C333.387 591.91 332.616 592.551 331.803 593.163C330.991 593.776 330.167 594.321 329.333 594.798L329.608 608.022L305.204 611.887ZM311.688 602.568L320.451 601.18L320.307 590.216C322.514 589.314 324.514 588.185 326.309 586.83C328.103 585.474 329.696 583.926 331.088 582.186L342.727 584.592L345.964 577.031L335.383 571.97C335.604 570.967 335.705 569.932 335.687 568.864C335.67 567.795 335.576 566.722 335.405 565.643C335.234 564.565 334.992 563.515 334.678 562.493C334.365 561.472 333.949 560.519 333.429 559.634L341.928 551.55L336.513 545.36L326.204 551.346C324.331 550.053 322.332 549.039 320.207 548.305C318.082 547.571 315.83 547.115 313.452 546.939L310.312 536.449L301.549 537.837L301.693 548.801C299.486 549.704 297.486 550.833 295.691 552.188C293.897 553.543 292.304 555.091 290.912 556.832L279.273 554.426L276.036 561.987L286.601 566.947C286.391 568.017 286.292 569.069 286.305 570.103C286.317 571.138 286.414 572.228 286.595 573.374C286.766 574.453 287.006 575.486 287.314 576.474C287.622 577.461 288.041 578.431 288.571 579.384L280.072 587.467L285.487 593.658L295.796 587.672C297.669 588.965 299.668 589.978 301.793 590.713C303.918 591.447 306.17 591.902 308.548 592.078L311.688 602.568ZM313.464 583.63C317.753 582.95 321.195 580.989 323.789 577.745C326.384 574.501 327.371 570.924 326.752 567.014C326.133 563.104 324.088 560.007 320.618 557.724C317.149 555.44 313.269 554.638 308.98 555.318C304.617 556.009 301.156 557.973 298.599 561.211C296.041 564.45 295.072 568.024 295.692 571.933C296.311 575.843 298.337 578.943 301.77 581.232C305.203 583.522 309.101 584.321 313.464 583.63Z" fill="#84FFB5"/>
<path d="M39.0441 761.013C38.3161 761.013 37.5951 761.136 36.9225 761.374C36.2498 761.612 35.6387 761.961 35.1238 762.401C34.609 762.841 34.2007 763.364 33.922 763.939C33.6434 764.514 33.5 765.13 33.5 765.752C33.5 766.375 33.6434 766.991 33.922 767.566C34.2007 768.141 34.609 768.664 35.1238 769.104C35.6387 769.544 36.2498 769.893 36.9225 770.131C37.5951 770.369 38.3161 770.492 39.0441 770.492C39.7722 770.492 40.4931 770.369 41.1658 770.131C41.8384 769.893 42.4496 769.544 42.9644 769.104C43.4792 768.664 43.8876 768.141 44.1662 767.566C44.4448 766.991 44.5882 766.375 44.5882 765.752C44.5882 765.13 44.4448 764.514 44.1662 763.939C43.8876 763.364 43.4792 762.841 42.9644 762.401C42.4496 761.961 41.8384 761.612 41.1658 761.374C40.4931 761.136 39.7722 761.013 39.0441 761.013ZM23.5134 775.18L22.29 774.914C13.1717 772.944 7.94118 769.601 7.94118 765.744C7.94118 761.886 13.1717 758.543 22.29 756.573L23.5134 756.309L23.8581 757.346C24.7818 760.066 25.9633 762.718 27.3909 765.274L27.6527 765.746L27.3909 766.218C25.9609 768.773 24.7794 771.424 23.8581 774.145L23.5134 775.18ZM21.7224 758.995C14.7916 760.659 10.5383 763.204 10.5383 765.744C10.5383 768.281 14.7916 770.826 21.7224 772.492C22.57 770.188 23.5934 767.934 24.786 765.744C23.592 763.554 22.5686 761.3 21.7224 758.995ZM54.5749 775.18L54.2301 774.141C53.3073 771.421 52.1249 768.77 50.6948 766.216L50.433 765.744L50.6948 765.272C52.1244 762.716 53.3068 760.065 54.2301 757.344L54.5749 756.307L55.8008 756.571C64.9166 758.54 70.1471 761.884 70.1471 765.744C70.1471 769.603 64.9166 772.944 55.8008 774.914L54.5749 775.18ZM53.3022 765.744C54.5463 768.046 55.5753 770.308 56.3659 772.492C63.2992 770.826 67.55 768.281 67.55 765.744C67.55 763.204 63.2966 760.661 56.3659 758.995C55.5194 761.299 54.496 763.554 53.3022 765.744ZM21.7042 758.984L21.3595 757.949C18.7961 750.225 19.5737 744.69 23.4926 742.758C27.3365 740.862 33.5078 743.102 39.9746 748.776L40.8559 749.549L39.9746 750.323C37.6768 752.365 35.5773 754.563 33.697 756.896L33.3471 757.324L32.738 757.368C29.4305 757.591 26.1496 758.043 22.9276 758.72L21.7042 758.984ZM26.6185 744.294C25.9239 744.294 25.3096 744.422 24.7912 744.677C22.2148 745.947 21.7587 750.36 23.5341 756.316C26.2962 755.791 29.0953 755.42 31.9138 755.206C33.54 753.229 35.3167 751.346 37.2324 749.569C33.189 746.204 29.3607 744.294 26.6185 744.294ZM51.4723 789.409C47.7789 789.409 43.0357 787.032 38.1136 782.711L37.2324 781.938L38.1136 781.165C40.4109 779.122 42.5095 776.923 44.3886 774.589L44.7385 774.161L45.3451 774.117C48.6543 773.895 51.937 773.444 55.1606 772.767L56.384 772.504L56.7313 773.541C59.2895 781.26 58.5146 786.797 54.5956 788.727C53.6437 789.187 52.5658 789.422 51.4723 789.409ZM40.8559 781.918C44.8992 785.283 48.7275 787.193 51.4697 787.193C52.1618 787.193 52.7812 787.065 53.297 786.81C55.8734 785.54 56.3322 781.125 54.5541 775.169C51.7914 775.695 48.9913 776.066 46.1719 776.279C44.5476 778.257 42.7717 780.141 40.8559 781.918ZM56.384 758.984L55.1606 758.72C51.9374 758.041 48.6546 757.589 45.3451 757.368L44.7385 757.324L44.3886 756.896C42.5105 754.562 40.4118 752.364 38.1136 750.323L37.2324 749.549L38.1136 748.776C44.5779 743.104 50.7466 740.864 54.5956 742.758C58.5146 744.69 59.2921 750.225 56.7313 757.947L56.384 758.984ZM46.1719 755.206C49.1318 755.436 51.9441 755.811 54.5541 756.316C56.3322 750.36 55.8734 745.947 53.297 744.677C50.7362 743.412 45.923 745.351 40.8559 749.569C42.7706 751.346 44.5465 753.229 46.1719 755.206ZM26.6185 789.409C25.5242 789.423 24.4453 789.187 23.4926 788.727C19.5737 786.797 18.7961 781.262 21.3595 773.541L21.7016 772.504L22.925 772.767C25.9187 773.412 29.2208 773.866 32.7354 774.117L33.3445 774.161L33.6918 774.589C35.5724 776.922 37.6719 779.122 39.9694 781.165L40.8507 781.938L39.9694 782.711C35.05 787.032 30.3068 789.409 26.6185 789.409ZM23.5341 775.169C21.7561 781.125 22.2148 785.54 24.7912 786.81C27.3494 788.057 32.16 786.134 37.2324 781.918C35.3175 780.139 33.5408 778.256 31.9138 776.279C29.0952 776.066 26.296 775.695 23.5341 775.169ZM39.0441 776.56C36.911 776.56 34.7182 776.481 32.5229 776.326L31.9138 776.281L31.5639 775.854C30.3221 774.328 29.1547 772.76 28.0648 771.152C26.9781 769.543 25.9698 767.896 25.0426 766.216L24.786 765.744L25.0426 765.272C25.9697 763.591 26.9779 761.944 28.0648 760.335C29.1378 758.749 30.3172 757.167 31.5639 755.634L31.9138 755.206L32.5229 755.162C36.8634 754.847 41.2274 754.847 45.568 755.162L46.1745 755.206L46.5218 755.634C49.0079 758.685 51.1901 761.909 53.0456 765.272L53.3074 765.744L53.0456 766.216C51.1946 769.581 49.0121 772.805 46.5218 775.854L46.1745 776.281L45.568 776.326C43.3726 776.481 41.1773 776.56 39.0441 776.56ZM33.3497 774.159C37.1857 774.405 40.9025 774.405 44.7411 774.159C46.8842 771.48 48.7869 768.667 50.433 765.744C48.7898 762.818 46.8861 760.005 44.7385 757.329C40.9477 757.083 37.1405 757.083 33.3497 757.329C31.2012 760.004 29.2974 762.818 27.6553 765.744C29.3031 768.667 31.2066 771.48 33.3497 774.159Z" fill="#1EBBFF"/>
<path d="M332.697 799.575L326.424 778.028C324.822 777.695 323.288 777.233 321.824 776.644C320.36 776.054 318.916 775.402 317.492 774.688L298.096 786.565L273.74 756.964L289.583 740.719C289.34 739.936 289.159 739.172 289.042 738.428L288.307 733.789C288.189 733.045 288.125 732.263 288.114 731.443L268.027 720.888L282.043 685.21L304.159 690.512C305.293 689.393 306.494 688.322 307.763 687.3C309.031 686.277 310.318 685.369 311.622 684.575L310.93 662.144L349.303 656.067L355.576 677.614C357.178 677.947 358.712 678.408 360.176 678.998C361.64 679.588 363.084 680.24 364.508 680.953L383.904 669.077L408.26 698.678L392.417 714.923C392.66 715.706 392.841 716.47 392.958 717.214L393.693 721.852C393.811 722.597 393.817 723.388 393.712 724.227L413.799 734.781L399.783 770.46L377.841 765.13C376.707 766.249 375.506 767.319 374.237 768.342C372.969 769.365 371.682 770.273 370.378 771.067L371.07 793.498L332.697 799.575ZM342.73 783.898L356.509 781.716L356.067 763.12C359.526 761.632 362.656 759.757 365.457 757.494C368.257 755.231 370.736 752.637 372.896 749.712L391.279 754.021L396.231 741.262L379.462 732.471C379.79 730.776 379.929 729.022 379.88 727.21C379.832 725.398 379.662 723.576 379.372 721.743C379.082 719.911 378.68 718.126 378.166 716.387C377.653 714.649 376.978 713.024 376.143 711.513L389.374 697.971L380.722 687.367L364.597 697.317C361.622 695.088 358.453 693.33 355.09 692.043C351.728 690.755 348.171 689.939 344.422 689.594L339.27 671.743L325.491 673.926L325.933 692.522C322.474 694.009 319.344 695.885 316.543 698.148C313.743 700.411 311.264 703.005 309.104 705.93L290.721 701.621L285.769 714.38L302.511 722.999C302.201 724.809 302.066 726.591 302.106 728.346C302.145 730.101 302.319 731.952 302.628 733.898C302.918 735.731 303.315 737.488 303.82 739.169C304.325 740.85 305.004 742.503 305.857 744.129L292.626 757.671L301.278 768.275L317.403 758.325C320.378 760.554 323.547 762.312 326.91 763.599C330.272 764.886 333.829 765.703 337.578 766.048L342.73 783.898ZM345.158 751.816C351.902 750.748 357.286 747.488 361.31 742.038C365.334 736.587 366.82 730.541 365.768 723.898C364.715 717.256 361.434 711.964 355.923 708.024C350.412 704.083 344.284 702.647 337.54 703.715C330.679 704.802 325.266 708.066 321.3 713.507C317.335 718.949 315.878 724.991 316.93 731.633C317.982 738.276 321.235 743.572 326.688 747.521C332.141 751.471 338.298 752.903 345.158 751.816Z" fill="#FFDA56"/>
<path d="M333.492 328.594C332.978 328.594 332.465 328.731 332.022 329.006L318.086 337.766C317.186 338.333 316.625 339.406 316.625 340.539V356.431C316.625 357.58 317.186 358.637 318.086 359.204L321.745 361.501C323.517 362.45 324.148 362.449 324.95 362.449C327.58 362.449 329.083 360.719 329.083 357.717V341.319C329.083 341.074 328.902 340.874 328.677 340.874H326.919C326.68 340.874 326.51 341.074 326.51 341.319V357.702C326.51 359.05 325.232 360.366 323.165 359.249L319.339 356.844C319.198 356.768 319.113 356.6 319.113 356.431V340.554C319.113 340.37 319.198 340.215 319.339 340.123L333.275 331.366C333.401 331.274 333.571 331.274 333.711 331.366L347.648 340.123C347.788 340.215 347.873 340.37 347.873 340.539V356.431C347.873 356.6 347.788 356.768 347.661 356.844L333.711 365.619C333.585 365.695 333.401 365.695 333.275 365.619L329.688 363.307C329.589 363.231 329.451 363.216 329.353 363.277C328.354 363.89 328.171 363.966 327.243 364.318C327.018 364.394 326.667 364.547 327.37 364.976L332.022 367.979C332.472 368.254 332.98 368.406 333.486 368.406C334.007 368.406 334.511 368.254 334.961 367.979L348.914 359.204C349.814 358.637 350.375 357.58 350.375 356.431V340.554C350.375 339.405 349.814 338.348 348.914 337.781L334.961 329.006C334.518 328.731 334.005 328.594 333.492 328.594ZM337.241 340.853C333.261 340.853 330.885 342.689 330.885 345.752C330.885 349.074 333.246 349.992 337.071 350.405C341.641 350.895 341.992 351.632 341.992 352.612C341.992 354.297 340.743 355.017 337.804 355.017C334.105 355.017 333.289 354.005 333.022 352.014C332.994 351.8 332.826 351.646 332.629 351.646H330.814C330.589 351.646 330.421 351.847 330.421 352.077C330.421 354.634 331.701 357.679 337.804 357.679C342.22 357.679 344.75 355.782 344.75 352.475C344.75 349.198 342.711 348.323 338.436 347.695C334.09 347.083 333.654 346.761 333.654 345.659C333.654 344.74 334.035 343.532 337.241 343.532C340.096 343.532 341.164 344.204 341.6 346.302C341.642 346.501 341.796 346.655 341.992 346.655H343.808C343.92 346.655 344.017 346.594 344.102 346.502C344.172 346.426 344.215 346.302 344.201 346.164C343.919 342.55 341.713 340.853 337.241 340.853Z" fill="#4BFF47"/>
<mask id="mask0_339_2" style="mask-type:luminance" maskUnits="userSpaceOnUse" x="277" y="91" width="57" height="51">
<path d="M277 91H333.822V142H277V91Z" fill="white"/>
</mask>
<g mask="url(#mask0_339_2)">
<path d="M332.752 114.229L307.942 91.9632C307.602 91.658 307.199 91.4158 306.754 91.2506C306.31 91.0854 305.834 91.0004 305.353 91.0004C304.873 91.0004 304.396 91.0854 303.952 91.2506C303.508 91.4158 303.105 91.658 302.765 91.9632L297.615 96.5877L304.149 102.452C304.917 102.218 305.743 102.181 306.533 102.347C307.323 102.512 308.046 102.872 308.62 103.387C309.197 103.905 309.6 104.559 309.782 105.273C309.965 105.988 309.919 106.733 309.652 107.426L315.951 113.078C316.723 112.838 317.554 112.797 318.35 112.961C319.146 113.125 319.875 113.488 320.452 114.006C320.856 114.369 321.177 114.8 321.396 115.274C321.615 115.748 321.727 116.256 321.727 116.769C321.727 117.283 321.615 117.791 321.396 118.265C321.177 118.739 320.856 119.17 320.452 119.533C319.635 120.266 318.526 120.677 317.371 120.677C316.215 120.677 315.107 120.266 314.29 119.533C313.682 118.987 313.269 118.292 313.101 117.535C312.932 116.779 313.017 115.994 313.345 115.281L307.47 110.01V123.884C308.09 124.159 308.628 124.563 309.04 125.061C309.452 125.56 309.725 126.14 309.838 126.752C309.95 127.365 309.898 127.992 309.687 128.583C309.475 129.174 309.109 129.711 308.62 130.15C308.216 130.513 307.736 130.801 307.208 130.998C306.68 131.194 306.113 131.295 305.542 131.295C304.97 131.295 304.404 131.194 303.875 130.998C303.347 130.801 302.867 130.513 302.463 130.15C302.059 129.788 301.738 129.357 301.519 128.883C301.3 128.408 301.187 127.9 301.187 127.387C301.187 126.874 301.3 126.365 301.519 125.891C301.738 125.417 302.059 124.986 302.463 124.623C302.87 124.257 303.355 123.967 303.888 123.769V109.767C303.357 109.571 302.874 109.283 302.468 108.919C302.062 108.554 301.739 108.122 301.52 107.645C301.3 107.169 301.188 106.659 301.189 106.143C301.19 105.628 301.304 105.118 301.525 104.642L295.083 98.8589L278.07 114.125C277.384 114.742 276.999 115.577 276.999 116.448C276.999 117.319 277.384 118.155 278.07 118.771L302.881 141.04C303.568 141.655 304.499 142.001 305.469 142.001C306.439 142.001 307.37 141.655 308.057 141.04L332.752 118.875C333.438 118.259 333.823 117.423 333.823 116.552C333.823 115.681 333.438 114.846 332.752 114.229Z" fill="#F03C2E"/>
</g>
<g clip-path="url(#clip1_339_2)">
<path d="M36 602V617H75V587H36V602ZM67.4291 600.805C68.4204 600.995 69.1744 601.334 69.8682 601.886C70.2274 602.181 70.7604 602.719 70.8026 602.849C70.8156 602.886 69.1191 603.761 68.0921 604.253C68.0548 604.271 67.9052 604.147 67.7395 603.958C67.2358 603.395 66.7109 603.153 65.9065 603.11C64.7235 603.047 63.963 603.524 63.9695 604.319C63.9587 604.514 64.0159 604.708 64.1352 604.881C64.3952 605.295 64.8795 605.544 66.394 606.048C69.1874 606.972 70.3817 607.581 71.1244 608.448C71.9531 609.414 72.14 610.958 71.5761 612.105C70.9586 613.352 69.423 614.2 67.2618 614.48C66.5939 614.571 65.0095 614.557 64.2913 614.458C62.7248 614.243 61.2395 613.648 60.323 612.866C59.9639 612.563 59.2635 611.766 59.3074 611.71C59.3253 611.69 59.4861 611.614 59.6649 611.534C59.8404 611.458 60.4953 611.166 61.1144 610.89L62.2356 610.39L62.4713 610.658C62.7995 611.043 63.5161 611.571 63.95 611.748C65.1948 612.253 66.9026 612.181 67.7444 611.6C67.9136 611.49 68.0476 611.352 68.1359 611.196C68.2241 611.04 68.2642 610.87 68.253 610.7C68.253 610.352 68.1961 610.2 67.9605 609.938C67.6582 609.605 67.0391 609.325 65.2809 608.737C63.2691 608.071 62.403 607.657 61.61 607C61.1151 606.566 60.7495 606.054 60.5391 605.5C60.3913 605.076 60.3539 604.014 60.4709 603.586C60.8853 602.09 62.3526 601.049 64.47 600.739C65.1574 600.639 66.7547 600.676 67.4291 600.805ZM58.2739 602.057L58.2869 603.286H53.2087V614.381H49.6175V603.286H44.5442V602.081C44.5442 601.414 44.5621 600.856 44.5865 600.844C44.606 600.824 47.6951 600.814 51.4391 600.819L58.256 600.834L58.2739 602.057Z" fill="#69B7FF"/>
</g>
<path d="M182.688 666.5V701.5H220.312V666.5H182.688ZM202.844 693.688C202.844 697.095 200.68 698.755 197.549 698.755C194.72 698.755 193.078 697.393 192.245 695.748L195.124 694.127C195.679 695.044 196.101 695.819 197.313 695.819C198.32 695.819 199.148 695.396 199.148 693.752V682.75H202.844V693.688ZM211.188 698.677C207.905 698.677 205.783 697.299 204.748 695.396L207.631 693.844C208.387 694.995 209.374 695.763 211.116 695.763C212.581 695.763 213.432 695.159 213.432 694.22C213.432 693.092 212.556 692.693 210.939 692.032L210.055 691.679C207.504 690.67 205.813 689.401 205.813 686.722C205.813 684.255 207.832 682.454 210.989 682.454C213.238 682.454 214.853 683.104 216.016 685.007L213.258 686.656C212.651 685.646 211.998 685.25 210.985 685.25C209.95 685.25 209.293 685.861 209.293 686.656C209.293 687.643 209.95 688.042 211.465 688.653L212.348 689.005C215.354 690.204 217.046 691.427 217.046 694.174C217.047 697.135 214.547 698.677 211.188 698.677Z" fill="#FFF172"/>
</g>
<defs>
<clipPath id="clip0_339_2">
<rect width="360" height="800" fill="white"/>
</clipPath>
<clipPath id="clip1_339_2">
<rect width="39" height="30" fill="white" transform="translate(36 587)"/>
</clipPath>
</defs>
</svg>
