<svg width="1261" height="856" viewBox="0 0 1261 856" fill="none" xmlns="http://www.w3.org/2000/svg">
<g clip-path="url(#clip0_339_3)">
<g clip-path="url(#clip1_339_3)">
<path d="M1063.5 681.305C1062.2 681.305 1060.91 681.582 1059.71 682.119C1058.51 682.657 1057.42 683.444 1056.5 684.437C1055.59 685.431 1054.86 686.61 1054.36 687.907C1053.86 689.205 1053.61 690.595 1053.61 692C1053.61 693.404 1053.86 694.795 1054.36 696.093C1054.86 697.39 1055.59 698.569 1056.5 699.562C1057.42 700.556 1058.51 701.343 1059.71 701.881C1060.91 702.418 1062.2 702.695 1063.5 702.695C1064.8 702.695 1066.09 702.418 1067.29 701.881C1068.49 701.343 1069.58 700.556 1070.5 699.562C1071.41 698.569 1072.14 697.39 1072.64 696.093C1073.14 694.795 1073.39 693.404 1073.39 692C1073.39 690.595 1073.14 689.205 1072.64 687.907C1072.14 686.61 1071.41 685.431 1070.5 684.437C1069.58 683.444 1068.49 682.657 1067.29 682.119C1066.09 681.582 1064.8 681.305 1063.5 681.305ZM1035.79 713.275L1033.6 712.675C1017.33 708.23 1008 700.685 1008 691.98C1008 683.275 1017.33 675.73 1033.6 671.285L1035.79 670.69L1036.4 673.03C1038.05 679.169 1040.16 685.152 1042.71 690.92L1043.17 691.985L1042.71 693.05C1040.15 698.816 1038.05 704.8 1036.4 710.94L1035.79 713.275ZM1032.59 676.75C1020.22 680.505 1012.63 686.25 1012.63 691.98C1012.63 697.705 1020.22 703.45 1032.59 707.21C1034.1 702.01 1035.93 696.922 1038.06 691.98C1035.93 687.039 1034.1 681.951 1032.59 676.75ZM1091.21 713.275L1090.6 710.93C1088.95 704.792 1086.84 698.81 1084.29 693.045L1083.82 691.98L1084.29 690.915C1086.84 685.148 1088.95 679.164 1090.6 673.025L1091.21 670.685L1093.4 671.28C1109.67 675.725 1119 683.27 1119 691.98C1119 700.69 1109.67 708.23 1093.4 712.675L1091.21 713.275ZM1088.94 691.98C1091.16 697.175 1093 702.28 1094.41 707.21C1106.78 703.45 1114.37 697.705 1114.37 691.98C1114.37 686.25 1106.78 680.51 1094.41 676.75C1092.9 681.951 1091.07 687.039 1088.94 691.98ZM1032.56 676.725L1031.94 674.39C1027.37 656.96 1028.76 644.47 1035.75 640.11C1042.61 635.83 1053.62 640.885 1065.16 653.69L1066.73 655.435L1065.16 657.18C1061.06 661.788 1057.31 666.749 1053.96 672.015L1053.33 672.98L1052.25 673.08C1046.35 673.583 1040.49 674.603 1034.74 676.13L1032.56 676.725ZM1041.33 643.575C1040.09 643.575 1038.99 643.865 1038.07 644.44C1033.47 647.305 1032.66 657.265 1035.82 670.705C1040.75 669.52 1045.75 668.683 1050.78 668.2C1053.68 663.739 1056.85 659.49 1060.27 655.48C1053.05 647.885 1046.22 643.575 1041.33 643.575ZM1085.68 745.385C1085.67 745.385 1085.67 745.385 1085.68 745.385C1079.09 745.385 1070.62 740.02 1061.84 730.27L1060.27 728.525L1061.84 726.78C1065.94 722.17 1069.68 717.207 1073.04 711.94L1073.66 710.975L1074.74 710.875C1080.65 710.375 1086.51 709.356 1092.26 707.83L1094.44 707.235L1095.06 709.575C1099.63 726.995 1098.24 739.49 1091.25 743.845C1089.55 744.883 1087.63 745.415 1085.68 745.385ZM1066.73 728.48C1073.95 736.075 1080.78 740.385 1085.67 740.385C1086.91 740.385 1088.01 740.095 1088.93 739.52C1093.53 736.655 1094.35 726.69 1091.18 713.25C1086.25 714.437 1081.25 715.274 1076.22 715.755C1073.32 720.219 1070.15 724.47 1066.73 728.48ZM1094.44 676.725L1092.26 676.13C1086.51 674.599 1080.65 673.578 1074.74 673.08L1073.66 672.98L1073.04 672.015C1069.69 666.748 1065.94 661.786 1061.84 657.18L1060.27 655.435L1061.84 653.69C1073.37 640.89 1084.38 635.835 1091.25 640.11C1098.24 644.47 1099.63 656.96 1095.06 674.385L1094.44 676.725ZM1076.22 668.2C1081.5 668.72 1086.52 669.565 1091.18 670.705C1094.35 657.265 1093.53 647.305 1088.93 644.44C1084.36 641.585 1075.77 645.96 1066.73 655.48C1070.15 659.49 1073.32 663.74 1076.22 668.2ZM1041.33 745.385C1039.38 745.416 1037.45 744.884 1035.75 743.845C1028.76 739.49 1027.37 727 1031.94 709.575L1032.55 707.235L1034.74 707.83C1040.08 709.285 1045.97 710.31 1052.24 710.875L1053.33 710.975L1053.95 711.94C1057.31 717.207 1061.05 722.17 1065.15 726.78L1066.72 728.525L1065.15 730.27C1056.37 740.02 1047.91 745.385 1041.33 745.385ZM1035.82 713.25C1032.65 726.69 1033.47 736.655 1038.07 739.52C1042.63 742.335 1051.22 737.995 1060.27 728.48C1056.85 724.467 1053.68 720.216 1050.78 715.755C1045.75 715.274 1040.75 714.437 1035.82 713.25ZM1063.5 716.39C1059.69 716.39 1055.78 716.21 1051.86 715.86L1050.78 715.76L1050.15 714.795C1047.94 711.353 1045.85 707.813 1043.91 704.185C1041.97 700.554 1040.17 696.837 1038.52 693.045L1038.06 691.98L1038.52 690.915C1040.17 687.123 1041.97 683.406 1043.91 679.775C1045.82 676.195 1047.93 672.625 1050.15 669.165L1050.78 668.2L1051.86 668.1C1059.61 667.39 1067.4 667.39 1075.14 668.1L1076.22 668.2L1076.84 669.165C1081.28 676.05 1085.17 683.326 1088.48 690.915L1088.95 691.98L1088.48 693.045C1085.18 700.639 1081.29 707.915 1076.84 714.795L1076.22 715.76L1075.14 715.86C1071.22 716.21 1067.31 716.39 1063.5 716.39ZM1053.34 710.97C1060.18 711.525 1066.82 711.525 1073.67 710.97C1077.49 704.926 1080.89 698.578 1083.82 691.98C1080.89 685.378 1077.49 679.029 1073.66 672.99C1066.9 672.435 1060.1 672.435 1053.34 672.99C1049.51 679.028 1046.11 685.377 1043.18 691.98C1046.12 698.577 1049.51 704.925 1053.34 710.97Z" fill="#1EBBFF"/>
</g>
<path d="M41.6094 272.01L36.89 251.564C35.645 251.169 34.4549 250.658 33.3194 250.031C32.184 249.404 31.0646 248.72 29.9612 247.979L14.77 258.058L-3.96584 229.148L8.49293 214.806C8.30953 214.061 8.17479 213.339 8.08868 212.638L7.5522 208.268C7.4661 207.567 7.42202 206.833 7.41997 206.067L-8.13846 195.165L3.04695 162.581L20.2251 168.685C21.1165 167.699 22.0599 166.762 23.0552 165.874C24.0505 164.985 25.0591 164.204 26.0809 163.531L25.7137 142.55L55.635 138.876L60.3544 159.323C61.5993 159.717 62.7895 160.228 63.925 160.855C65.0604 161.483 66.1798 162.166 67.2831 162.907L82.4744 152.829L101.21 181.738L88.7515 196.081C88.9349 196.825 89.0696 197.547 89.1557 198.249L89.6922 202.618C89.7783 203.319 89.777 204.059 89.6884 204.836L105.247 215.738L94.0614 248.322L77.0193 242.201C76.1279 243.187 75.1845 244.124 74.1892 245.013C73.1939 245.902 72.1853 246.682 71.1635 247.355L71.5307 268.336L41.6094 272.01ZM49.5402 257.895L60.2847 256.576L60.0826 239.189C62.7874 237.98 65.2385 236.393 67.436 234.426C69.6335 232.458 71.5838 230.166 73.2872 227.547L87.5664 232.529L91.5195 220.873L78.5315 211.791C78.7994 210.225 78.9213 208.595 78.8974 206.9C78.8734 205.206 78.7554 203.495 78.5435 201.769C78.3315 200.043 78.0322 198.355 77.6456 196.705C77.2589 195.055 76.7462 193.503 76.1074 192.048L86.5123 180.093L79.857 169.741L67.2269 178.191C64.9275 175.954 62.4738 174.147 59.8657 172.77C57.2576 171.393 54.4952 170.445 51.5784 169.928L47.7041 152.991L36.9597 154.31L37.1618 171.698C34.457 172.906 32.0058 174.494 29.8084 176.461C27.6109 178.428 25.6605 180.721 23.9572 183.339L9.67798 178.358L5.72489 190.013L18.693 198.934C18.4384 200.607 18.3197 202.265 18.3371 203.905C18.3544 205.546 18.4757 207.283 18.7009 209.117C18.9129 210.843 19.2088 212.504 19.5889 214.1C19.9689 215.696 20.485 217.275 21.137 218.838L10.732 230.793L17.3874 241.146L30.0174 232.696C32.3169 234.932 34.7706 236.739 37.3787 238.116C39.9868 239.493 42.7492 240.441 45.666 240.959L49.5402 257.895ZM51.676 228.065C56.9348 227.42 61.1515 224.657 64.3259 219.777C67.5003 214.898 68.7033 209.329 67.935 203.072C67.1667 196.815 64.6523 191.703 60.3917 187.736C56.1311 183.769 51.3713 182.109 46.1125 182.754C40.7629 183.411 36.5236 186.177 33.3945 191.051C30.2655 195.925 29.0851 201.49 29.8534 207.748C30.6217 214.005 33.1135 219.12 37.3287 223.092C41.544 227.064 46.3264 228.722 51.676 228.065Z" fill="#FFBC6D"/>
<path d="M107.665 184.295L106.972 152.665C105.184 151.686 103.517 150.554 101.971 149.268C100.426 147.982 98.9234 146.617 97.4638 145.174L70.8551 155.178L51.3172 106.607L75.0919 89.449C75.0487 88.2943 75.0736 87.1866 75.1664 86.1259L75.7445 79.5172C75.8373 78.4566 76.0052 77.3614 76.2482 76.2317L55.8142 55.206L83.4895 10.7658L107.957 25.2383C109.645 24.0706 111.397 22.9907 113.214 21.9987C115.031 21.0067 116.833 20.1778 118.621 19.5121L124.796 -11.5175L172.009 -7.38693L172.702 24.2435C174.491 25.2222 176.157 26.3546 177.703 27.6407C179.248 28.9269 180.751 30.2916 182.21 31.7347L208.819 21.7307L228.357 70.3015L204.582 87.4594C204.625 88.6142 204.601 89.7219 204.508 90.7825L203.93 97.3912C203.837 98.4519 203.597 99.5408 203.211 100.658L223.645 121.684L195.97 166.124L171.717 151.67C170.029 152.838 168.277 153.918 166.46 154.91C164.643 155.902 162.841 156.731 161.053 157.396L154.878 188.426L107.665 184.295ZM124.4 166.028L141.354 167.512L146.628 141.829C151.178 140.912 155.459 139.354 159.471 137.157C163.484 134.959 167.221 132.203 170.683 128.889L191.051 140.783L200.877 124.871L183.812 107.347C184.728 105.125 185.439 102.762 185.946 100.257C186.454 97.7532 186.822 95.1957 187.05 92.5848C187.279 89.974 187.36 87.3914 187.296 84.8372C187.231 82.2829 186.941 79.8322 186.425 77.4851L206.273 63.19L199.36 45.8137L177.214 54.2351C174.395 50.2066 171.2 46.7619 167.63 43.901C164.06 41.04 160.115 38.7628 155.794 37.0694L155.274 10.8801L138.32 9.39681L133.046 35.0792C128.496 35.9966 124.215 37.554 120.203 39.7516C116.19 41.9491 112.453 44.7052 108.991 48.0197L88.6232 36.1255L78.7975 52.0374L95.883 69.3171C94.9535 71.7022 94.2386 74.106 93.7383 76.5286C93.2381 78.9513 92.8666 81.5496 92.6239 84.3236C92.3954 86.9344 92.3172 89.4762 92.3892 91.9489C92.4612 94.4216 92.7478 96.9131 93.249 99.4233L73.4011 113.718L80.3145 131.095L102.46 122.673C105.279 126.702 108.474 130.147 112.044 133.007C115.614 135.868 119.559 138.146 123.88 139.839L124.4 166.028ZM137.268 122.759C145.566 123.485 152.941 120.759 159.392 114.582C165.843 108.405 169.483 100.585 170.311 91.1203C171.139 81.6561 168.913 73.3222 163.632 66.1187C158.352 58.9152 151.562 54.9505 143.264 54.2245C134.823 53.486 127.413 56.2084 121.033 62.3918C114.653 68.5751 111.05 76.3989 110.222 85.8632C109.393 95.3275 111.584 103.658 116.793 110.855C122.002 118.053 128.827 122.021 137.268 122.759Z" fill="#81CFFB"/>
<path d="M805.937 800.214L800.507 779.945C799.249 779.594 798.041 779.125 796.885 778.538C795.728 777.951 794.586 777.306 793.457 776.605L778.627 787.207L758.893 758.969L770.844 744.2C770.635 743.463 770.475 742.746 770.364 742.048L769.676 737.7C769.565 737.002 769.496 736.27 769.467 735.505L753.537 725.152L763.579 692.198L780.96 697.699C781.816 696.683 782.726 695.713 783.69 694.79C784.654 693.867 785.634 693.051 786.632 692.343L785.533 671.388L815.308 666.672L820.738 686.941C821.996 687.292 823.203 687.761 824.36 688.349C825.516 688.936 826.659 689.58 827.787 690.282L842.617 679.679L862.351 707.918L850.4 722.686C850.609 723.423 850.769 724.141 850.88 724.839L851.569 729.186C851.679 729.884 851.704 730.623 851.642 731.403L867.572 741.756L857.53 774.71L840.285 769.188C839.428 770.204 838.518 771.174 837.555 772.096C836.591 773.019 835.61 773.835 834.612 774.543L835.712 795.499L805.937 800.214ZM813.37 785.831L824.062 784.138L823.253 766.768C825.914 765.466 828.309 763.794 830.436 761.751C832.563 759.709 834.433 757.349 836.044 754.673L850.488 759.153L854.032 747.367L840.735 738.743C840.948 737.169 841.013 735.535 840.93 733.843C840.847 732.15 840.669 730.445 840.397 728.727C840.125 727.01 839.767 725.333 839.323 723.698C838.879 722.062 838.312 720.529 837.623 719.097L847.605 706.787L840.592 696.672L828.264 705.558C825.888 703.403 823.373 701.683 820.719 700.398C818.064 699.112 815.27 698.262 812.337 697.846L807.874 681.055L797.182 682.749L797.991 700.118C795.33 701.42 792.936 703.092 790.808 705.135C788.681 707.178 786.812 709.537 785.201 712.213L770.756 707.733L767.212 719.52L780.484 727.982C780.288 729.664 780.227 731.324 780.302 732.963C780.376 734.602 780.558 736.334 780.847 738.159C781.119 739.877 781.473 741.527 781.909 743.108C782.344 744.69 782.915 746.25 783.621 747.789L773.64 760.1L780.652 770.214L792.98 761.329C795.356 763.483 797.871 765.203 800.526 766.489C803.18 767.774 805.974 768.625 808.907 769.04L813.37 785.831ZM814.464 755.945C819.697 755.116 823.814 752.208 826.817 747.221C829.819 742.233 830.827 736.626 829.84 730.399C828.854 724.173 826.163 719.152 821.767 715.336C817.37 711.52 812.555 710.027 807.322 710.856C801.999 711.699 797.859 714.611 794.901 719.591C791.944 724.571 790.959 730.175 791.945 736.401C792.931 742.628 795.6 747.653 799.952 751.476C804.303 755.298 809.14 756.788 814.464 755.945Z" fill="#84FFB5"/>
<path d="M1107.92 261.732L1097.84 225.569C1095.39 224.974 1093.04 224.166 1090.8 223.145C1088.55 222.124 1086.33 221 1084.15 219.774L1054.86 239.162L1017.02 189.106L1040.79 162.332C1040.4 161.017 1040.1 159.736 1039.9 158.489L1038.67 150.719C1038.48 149.472 1038.36 148.163 1038.32 146.792L1007.45 128.674L1027.97 69.3746L1061.81 78.7636C1063.51 76.9207 1065.32 75.1597 1067.23 73.4807C1069.14 71.8016 1071.08 70.3144 1073.05 69.019L1071.46 31.5115L1129.82 22.2683L1139.9 58.4313C1142.35 59.0264 1144.7 59.8344 1146.94 60.8553C1149.19 61.8761 1151.41 62.9999 1153.59 64.2266L1182.88 44.8381L1220.72 94.8938L1196.96 121.668C1197.34 122.983 1197.64 124.264 1197.84 125.511L1199.07 133.281C1199.26 134.528 1199.29 135.851 1199.15 137.25L1230.03 155.369L1209.51 214.668L1175.93 205.236C1174.23 207.079 1172.42 208.84 1170.51 210.519C1168.6 212.199 1166.66 213.686 1164.69 214.981L1166.28 252.489L1107.92 261.732ZM1122.84 235.769L1143.8 232.45L1142.68 201.357C1147.92 198.954 1152.65 195.895 1156.87 192.179C1161.08 188.463 1164.8 184.186 1168.02 179.349L1196.15 186.989L1203.4 165.781L1177.62 150.689C1178.08 147.863 1178.25 144.935 1178.13 141.906C1178.02 138.876 1177.72 135.826 1177.23 132.757C1176.74 129.687 1176.09 126.694 1175.26 123.776C1174.44 120.858 1173.37 118.127 1172.06 115.581L1191.91 93.262L1178.47 75.3319L1154.12 91.5779C1149.53 87.7815 1144.66 84.7677 1139.5 82.5362C1134.34 80.3048 1128.9 78.8559 1123.18 78.1894L1114.9 48.2314L1093.94 51.5505L1095.06 82.6429C1089.82 85.046 1085.09 88.1055 1080.87 91.8215C1076.66 95.5374 1072.94 99.8138 1069.72 104.651L1041.59 97.0114L1034.34 118.219L1060.07 133.023C1059.64 136.041 1059.48 139.017 1059.58 141.95C1059.68 144.884 1059.99 147.982 1060.51 151.243C1061 154.313 1061.64 157.259 1062.45 160.08C1063.26 162.902 1064.34 165.682 1065.68 168.419L1045.83 190.738L1059.27 208.668L1083.62 192.422C1088.21 196.219 1093.08 199.232 1098.24 201.464C1103.4 203.695 1108.84 205.144 1114.56 205.811L1122.84 235.769ZM1125.78 182.205C1136.04 180.58 1144.17 175.261 1150.17 166.246C1156.18 157.232 1158.3 147.161 1156.54 136.034C1154.78 124.907 1149.65 115.984 1141.15 109.267C1132.65 102.549 1123.28 100.003 1113.02 101.627C1102.59 103.28 1094.41 108.606 1088.49 117.607C1082.58 126.607 1080.5 136.671 1082.26 147.798C1084.03 158.925 1089.11 167.855 1097.52 174.586C1105.93 181.318 1115.35 183.857 1125.78 182.205Z" fill="#FFDA56"/>
<path d="M146 480.5V517H236V444H146V480.5ZM218.529 477.592C220.816 478.054 222.556 478.879 224.157 480.223C224.986 480.941 226.216 482.249 226.314 482.565C226.344 482.657 222.429 484.786 220.059 485.981C219.973 486.027 219.627 485.726 219.245 485.263C218.082 483.895 216.871 483.304 215.015 483.201C212.285 483.049 210.53 484.208 210.545 486.142C210.52 486.618 210.652 487.091 210.927 487.511C211.527 488.518 212.645 489.123 216.14 490.349C222.586 492.6 225.342 494.081 227.056 496.189C228.969 498.54 229.4 502.297 228.099 505.089C226.674 508.124 223.13 510.187 218.143 510.868C216.601 511.09 212.945 511.057 211.287 510.813C207.672 510.29 204.245 508.842 202.13 506.941C201.301 506.202 199.685 504.265 199.786 504.128C199.828 504.079 200.199 503.893 200.611 503.699C201.016 503.513 202.527 502.805 203.956 502.132L206.544 500.916L207.088 501.567C207.845 502.503 209.499 503.79 210.5 504.219C213.373 505.448 217.314 505.274 219.256 503.86C219.647 503.593 219.956 503.257 220.16 502.877C220.363 502.497 220.456 502.084 220.43 501.67C220.43 500.824 220.299 500.453 219.755 499.815C219.057 499.006 217.629 498.324 213.571 496.895C208.929 495.273 206.93 494.267 205.1 492.667C203.958 491.611 203.114 490.365 202.629 489.017C202.287 487.986 202.201 485.4 202.471 484.36C203.428 480.719 206.814 478.185 211.7 477.431C213.286 477.188 216.972 477.279 218.529 477.592ZM197.401 480.64L197.431 483.63H185.713V510.628H177.425V483.63H165.717V480.698C165.717 479.073 165.759 477.717 165.815 477.686C165.86 477.638 172.989 477.613 181.629 477.626L197.36 477.662L197.401 480.64Z" fill="#69B7FF"/>
<path d="M94.7799 690C94.1917 690 93.7534 690.554 93.8056 691.232L98.7645 755.545C98.8167 756.222 99.323 756.925 99.89 757.107L120.933 763.863C121.5 764.045 122.427 764.045 122.994 763.863L144.101 757.097C144.668 756.915 145.175 756.212 145.227 755.535L150.194 691.232C150.247 690.554 149.808 690 149.22 690H94.7799ZM139.634 704.75C139.587 705.354 139.506 706.403 139.454 707.08L139.323 708.768C139.27 709.445 139.195 710.414 139.156 710.92C139.116 711.426 139.079 711.841 139.072 711.841C139.066 711.841 138.579 711.841 137.991 711.841H123.069C122.481 711.841 121.995 711.841 121.989 711.841C121.982 711.841 121.496 711.841 120.907 711.841H113.049C112.461 711.841 112.022 712.395 112.075 713.072L112.533 718.997C112.585 719.674 113.109 720.228 113.698 720.228H120.908C121.496 720.228 121.982 720.228 121.989 720.228C121.995 720.228 122.481 720.228 123.07 720.228H135.462C136.051 720.228 136.961 720.228 137.485 720.228C138.009 720.228 138.399 720.723 138.352 721.327C138.304 721.931 138.222 722.98 138.17 723.657L136.696 742.757C136.644 743.434 136.577 744.299 136.548 744.68C136.519 745.06 136.032 745.52 135.465 745.701L123.031 749.688C122.464 749.869 121.993 750.02 121.984 750.022C121.975 750.024 121.505 749.877 120.938 749.695L108.49 745.702C107.923 745.52 107.417 744.817 107.365 744.139L106.563 733.741C106.511 733.064 106.95 732.51 107.538 732.51H108.674C109.262 732.51 110.225 732.51 110.813 732.51H112.507C113.095 732.51 113.619 733.064 113.672 733.741L113.986 737.812C114.038 738.489 114.545 739.188 115.113 739.366L120.936 741.184C121.503 741.361 121.97 741.506 121.973 741.506C121.975 741.506 122.442 741.361 123.009 741.183L128.842 739.361C129.41 739.184 129.918 738.484 129.97 737.807L130.603 729.652C130.655 728.974 130.217 728.42 129.629 728.42H123.07C122.481 728.42 121.995 728.42 121.989 728.42C121.982 728.42 121.496 728.42 120.908 728.42H107.221C106.633 728.42 106.109 727.865 106.057 727.188L104.505 707.08C104.452 706.403 104.371 705.354 104.324 704.75C104.278 704.146 104.721 703.651 105.309 703.651H120.908C121.496 703.651 121.982 703.651 121.989 703.651C121.995 703.651 122.481 703.651 123.07 703.651H138.649C139.237 703.651 139.68 704.146 139.634 704.75Z" fill="#FFAA5C"/>
<path d="M276.985 582.969C276.05 582.969 275.115 583.207 274.307 583.685L248.913 598.88C247.273 599.863 246.25 601.724 246.25 603.69V631.259C246.25 633.251 247.273 635.085 248.913 636.068L255.579 640.052C258.808 641.699 259.959 641.697 261.42 641.697C266.212 641.697 268.952 638.696 268.952 633.489V605.044C268.952 604.619 268.621 604.271 268.211 604.271H265.008C264.573 604.271 264.263 604.619 264.263 605.044V633.463C264.263 635.801 261.934 638.085 258.167 636.146L251.195 631.974C250.939 631.842 250.784 631.551 250.784 631.259V603.716C250.784 603.397 250.939 603.128 251.195 602.968L276.59 587.778C276.82 587.619 277.129 587.619 277.385 587.778L302.78 602.968C303.036 603.128 303.191 603.397 303.191 603.69V631.259C303.191 631.551 303.036 631.842 302.805 631.974L277.385 647.196C277.155 647.329 276.82 647.329 276.59 647.196L270.053 643.186C269.874 643.053 269.622 643.028 269.443 643.134C267.623 644.196 267.29 644.328 265.599 644.939C265.189 645.072 264.548 645.337 265.829 646.081L274.307 651.289C275.127 651.767 276.052 652.031 276.975 652.031C277.923 652.031 278.843 651.767 279.663 651.289L305.087 636.068C306.727 635.085 307.75 633.251 307.75 631.259V603.716C307.75 601.723 306.727 599.889 305.087 598.906L279.663 583.685C278.855 583.207 277.92 582.969 276.985 582.969ZM283.817 604.234C276.565 604.234 272.235 607.42 272.235 612.732C272.235 618.496 276.536 620.088 283.506 620.805C291.834 621.655 292.475 622.933 292.475 624.633C292.475 627.555 290.198 628.805 284.843 628.805C278.103 628.805 276.616 627.049 276.129 623.596C276.078 623.224 275.772 622.958 275.413 622.958H272.105C271.695 622.958 271.39 623.306 271.39 623.705C271.39 628.141 273.721 633.422 284.843 633.422C292.889 633.422 297.5 630.132 297.5 624.395C297.5 618.71 293.784 617.193 285.994 616.104C278.076 615.042 277.28 614.484 277.28 612.571C277.28 610.978 277.974 608.883 283.817 608.883C289.019 608.883 290.965 610.048 291.759 613.687C291.836 614.032 292.116 614.299 292.475 614.299H295.783C295.988 614.299 296.165 614.194 296.319 614.034C296.447 613.902 296.525 613.687 296.499 613.448C295.987 607.179 291.965 604.234 283.817 604.234Z" fill="#4BFF47"/>
<path d="M1106.37 425H1065.63C1064.65 425 1063.92 425.908 1064.01 426.98L1067.73 472.82C1067.81 473.892 1068.66 475.014 1069.6 475.304L1084.27 479.783C1085.22 480.071 1086.76 480.073 1087.71 479.787L1102.39 475.314C1103.34 475.025 1104.18 473.913 1104.27 472.839L1107.99 426.98C1108.08 425.908 1107.35 425 1106.37 425ZM1099.3 441.547C1099.3 441.554 1099.3 441.559 1099.29 441.561C1099.29 441.562 1099.28 441.558 1099.28 441.552L1087.78 446.729C1087.62 446.803 1087.53 446.993 1087.56 447.184C1087.59 447.375 1087.75 447.513 1087.92 447.513H1096.86C1097.34 447.513 1097.79 447.735 1098.11 448.124C1098.43 448.512 1098.58 449.031 1098.53 449.551L1097.13 463.955C1097.07 464.662 1096.63 465.262 1096.02 465.498L1086.53 469.168C1086.18 469.307 1085.79 469.308 1085.43 469.171L1075.98 465.575C1075.37 465.341 1074.94 464.739 1074.87 464.029L1074.23 457.506C1074.2 457.163 1074.3 456.821 1074.51 456.565C1074.72 456.309 1075.02 456.163 1075.33 456.163H1077.96C1078.52 456.163 1079 456.631 1079.06 457.248L1079.45 461.258L1085.99 463.757L1092.56 461.235L1093.36 452.919H1074.78C1074.22 452.919 1073.75 452.454 1073.69 451.838L1073.33 448.314C1073.28 447.776 1073.55 447.264 1074.01 447.058L1085.9 441.671C1086.03 441.61 1086.11 441.452 1086.08 441.295C1086.05 441.138 1085.93 441.025 1085.78 441.025H1073.27C1072.89 441.025 1072.57 440.712 1072.53 440.3L1072.17 436.512C1072.15 436.284 1072.22 436.056 1072.36 435.886C1072.5 435.715 1072.69 435.618 1072.9 435.618H1099.09C1099.3 435.618 1099.5 435.717 1099.64 435.888C1099.78 436.06 1099.85 436.29 1099.82 436.519L1099.3 441.547Z" fill="#46BDFF"/>
<path d="M840 354V425H943V354H840ZM895.179 409.152C895.179 416.063 889.256 419.433 880.683 419.433C872.939 419.433 868.445 416.669 866.164 413.333L874.045 410.044C875.565 411.903 876.719 413.475 880.037 413.475C882.796 413.475 885.062 412.618 885.062 409.282V386.964H895.179V409.152ZM918.02 419.274C909.033 419.274 903.225 416.478 900.391 412.618L908.283 409.469C910.353 411.805 913.054 413.361 917.825 413.361C921.834 413.361 924.163 412.138 924.163 410.231C924.163 407.944 921.765 407.134 917.34 405.794L914.921 405.077C907.936 403.03 903.306 400.456 903.306 395.022C903.306 390.018 908.835 386.364 917.478 386.364C923.632 386.364 928.054 387.682 931.238 391.543L923.688 394.888C922.028 392.839 920.239 392.036 917.466 392.036C914.631 392.036 912.833 393.275 912.833 394.888C912.833 396.89 914.631 397.7 918.779 398.939L921.198 399.654C929.426 402.085 934.059 404.567 934.059 410.139C934.061 416.146 927.217 419.274 918.02 419.274Z" fill="#FFF172"/>
<g clip-path="url(#clip2_339_3)">
<mask id="mask0_339_3" style="mask-type:luminance" maskUnits="userSpaceOnUse" x="308" y="132" width="94" height="108">
<path d="M308 132.133H401.885V240H308V132.133Z" fill="white"/>
</mask>
<g mask="url(#mask0_339_3)">
<path d="M400.116 181.263L359.124 134.169C358.562 133.524 357.895 133.012 357.162 132.662C356.428 132.313 355.641 132.133 354.847 132.133C354.052 132.133 353.266 132.313 352.532 132.662C351.798 133.012 351.131 133.524 350.57 134.169L342.061 143.95L352.856 156.354C354.126 155.859 355.49 155.781 356.796 156.131C358.101 156.48 359.295 157.242 360.244 158.331C361.197 159.427 361.862 160.81 362.164 162.321C362.466 163.831 362.391 165.409 361.949 166.873L372.357 178.829C373.632 178.32 375.006 178.234 376.321 178.581C377.636 178.929 378.84 179.694 379.793 180.791C380.462 181.559 380.992 182.47 381.353 183.473C381.715 184.476 381.901 185.55 381.901 186.636C381.901 187.721 381.715 188.796 381.353 189.799C380.992 190.801 380.462 191.713 379.793 192.48C378.443 194.03 376.612 194.901 374.703 194.901C372.794 194.901 370.963 194.03 369.612 192.48C368.609 191.325 367.925 189.855 367.647 188.255C367.369 186.655 367.51 184.996 368.051 183.488L358.344 172.339V201.684C359.369 202.265 360.258 203.119 360.938 204.173C361.618 205.228 362.07 206.454 362.256 207.75C362.442 209.045 362.356 210.373 362.006 211.623C361.656 212.873 361.053 214.009 360.245 214.937C359.577 215.705 358.784 216.313 357.911 216.729C357.038 217.144 356.103 217.358 355.158 217.358C354.213 217.358 353.278 217.144 352.405 216.729C351.532 216.313 350.739 215.705 350.071 214.937C349.403 214.17 348.873 213.258 348.511 212.255C348.149 211.253 347.963 210.178 347.963 209.092C347.963 208.007 348.149 206.932 348.511 205.929C348.873 204.926 349.403 204.015 350.071 203.247C350.744 202.472 351.544 201.858 352.425 201.441V171.826C351.548 171.411 350.751 170.801 350.079 170.031C349.408 169.26 348.876 168.345 348.513 167.338C348.15 166.331 347.964 165.251 347.966 164.161C347.968 163.071 348.157 161.992 348.522 160.986L337.878 148.754L309.768 181.043C308.635 182.347 307.999 184.114 307.999 185.956C307.999 187.798 308.635 189.565 309.768 190.869L350.762 237.969C351.897 239.27 353.435 240.001 355.038 240.001C356.641 240.001 358.179 239.27 359.314 237.969L400.116 191.09C401.249 189.786 401.885 188.019 401.885 186.177C401.885 184.334 401.249 182.567 400.116 181.263Z" fill="#F03C2E"/>
</g>
</g>
</g>
<defs>
<clipPath id="clip0_339_3">
<rect width="1261" height="856" fill="white"/>
</clipPath>
<clipPath id="clip1_339_3">
<rect width="111" height="120" fill="white" transform="translate(1008 632)"/>
</clipPath>
<clipPath id="clip2_339_3">
<rect width="94" height="108" fill="white" transform="translate(308 132)"/>
</clipPath>
</defs>
</svg>
